<svg xmlns="http://www.w3.org/2000/svg" width="64" height="64" viewBox="0 0 64 64"><g transform="rotate(90 32 32)"><defs>
    <linearGradient id="cartoonBodyGrad" x1="0" y1="0" x2="0" y2="1">
      <stop offset="0" stop-color="#a6e84f" />
      <stop offset="1" stop-color="#2f7d32" />
    </linearGradient>
    <linearGradient id="cartoonHeadGrad" x1="0" y1="0" x2="0" y2="1">
      <stop offset="0" stop-color="#b9f066" />
      <stop offset="1" stop-color="#3c9142" />
    </linearGradient>
    <radialGradient id="cartoonAppleGrad" cx="0.35" cy="0.3" r="0.75">
      <stop offset="0" stop-color="#ff7a6e" />
      <stop offset="0.55" stop-color="#e8392f" />
      <stop offset="1" stop-color="#a8201a" />
    </radialGradient>
  </defs>
    <path d="M32,2
             C40,2 44,10 44,18
             C44,30 50,40 50,50
             C50,58 42,62 32,62
             C22,62 14,58 14,50
             C14,40 20,30 20,18
             C20,10 24,2 32,2 Z"
          fill="url(#cartoonBodyGrad)" />
    <path d="M32,10 C36,10 38,16 38,22 C38,32 41,38 41,46"
          stroke="#e9fbc9" stroke-width="7" stroke-linecap="round" fill="none" opacity="0.8" />
  </g></svg>