<svg xmlns="http://www.w3.org/2000/svg" width="64" height="64" viewBox="0 0 64 64"><g transform="rotate(270 32 32)"><rect x="24" y="0" width="8" height="8" fill="#8fe06a" shape-rendering="crispEdges" /><rect x="32" y="0" width="8" height="8" fill="#8fe06a" shape-rendering="crispEdges" /><rect x="40" y="0" width="8" height="8" fill="#8fe06a" shape-rendering="crispEdges" /><rect x="48" y="0" width="8" height="8" fill="#8fe06a" shape-rendering="crispEdges" /><rect x="56" y="0" width="8" height="8" fill="#8fe06a" shape-rendering="crispEdges" /><rect x="24" y="8" width="8" height="8" fill="#8fe06a" shape-rendering="crispEdges" /><rect x="32" y="8" width="8" height="8" fill="#5fb83f" shape-rendering="crispEdges" /><rect x="40" y="8" width="8" height="8" fill="#5fb83f" shape-rendering="crispEdges" /><rect x="48" y="8" width="8" height="8" fill="#5fb83f" shape-rendering="crispEdges" /><rect x="56" y="8" width="8" height="8" fill="#8fe06a" shape-rendering="crispEdges" /><rect x="24" y="16" width="8" height="8" fill="#8fe06a" shape-rendering="crispEdges" /><rect x="32" y="16" width="8" height="8" fill="#5fb83f" shape-rendering="crispEdges" /><rect x="40" y="16" width="8" height="8" fill="#2c6b1a" shape-rendering="crispEdges" /><rect x="48" y="16" width="8" height="8" fill="#5fb83f" shape-rendering="crispEdges" /><rect x="56" y="16" width="8" height="8" fill="#8fe06a" shape-rendering="crispEdges" /><rect x="24" y="24" width="8" height="8" fill="#2c6b1a" shape-rendering="crispEdges" /><rect x="32" y="24" width="8" height="8" fill="#5fb83f" shape-rendering="crispEdges" /><rect x="40" y="24" width="8" height="8" fill="#5fb83f" shape-rendering="crispEdges" /><rect x="48" y="24" width="8" height="8" fill="#5fb83f" shape-rendering="crispEdges" /><rect x="56" y="24" width="8" height="8" fill="#8fe06a" shape-rendering="crispEdges" /><rect x="24" y="32" width="8" height="8" fill="#8fe06a" shape-rendering="crispEdges" /><rect x="32" y="32" width="8" height="8" fill="#2c6b1a" shape-rendering="crispEdges" /><rect x="40" y="32" width="8" height="8" fill="#5fb83f" shape-rendering="crispEdges" /><rect x="48" y="32" width="8" height="8" fill="#5fb83f" shape-rendering="crispEdges" /><rect x="56" y="32" width="8" height="8" fill="#8fe06a" shape-rendering="crispEdges" /><rect x="32" y="40" width="8" height="8" fill="#8fe06a" shape-rendering="crispEdges" /><rect x="40" y="40" width="8" height="8" fill="#5fb83f" shape-rendering="crispEdges" /><rect x="48" y="40" width="8" height="8" fill="#5fb83f" shape-rendering="crispEdges" /><rect x="56" y="40" width="8" height="8" fill="#8fe06a" shape-rendering="crispEdges" /><rect x="40" y="48" width="8" height="8" fill="#8fe06a" shape-rendering="crispEdges" /><rect x="48" y="48" width="8" height="8" fill="#5fb83f" shape-rendering="crispEdges" /><rect x="56" y="48" width="8" height="8" fill="#8fe06a" shape-rendering="crispEdges" /><rect x="48" y="56" width="8" height="8" fill="#8fe06a" shape-rendering="crispEdges" /><rect x="56" y="56" width="8" height="8" fill="#8fe06a" shape-rendering="crispEdges" /></g></svg>