<svg xmlns="http://www.w3.org/2000/svg" width="64" height="64" viewBox="0 0 64 64"><g transform="rotate(0 32 32)"><rect x="0" y="8" width="64" height="56" fill="#a3ef82" shape-rendering="crispEdges" /><rect x="0" y="8" width="64" height="16" fill="#8fe06a" shape-rendering="crispEdges" /><rect x="0" y="48" width="64" height="16" fill="#3d8a28" shape-rendering="crispEdges" /><rect x="8" y="16" width="16" height="16" fill="#f2fff0" shape-rendering="crispEdges" /><rect x="40" y="16" width="16" height="16" fill="#f2fff0" shape-rendering="crispEdges" /><rect x="8" y="24" width="8" height="8" fill="#12240a" shape-rendering="crispEdges" /><rect x="48" y="24" width="8" height="8" fill="#12240a" shape-rendering="crispEdges" /><rect x="24" y="0" width="8" height="8" fill="#e0453a" shape-rendering="crispEdges" /><rect x="32" y="0" width="8" height="8" fill="#e0453a" shape-rendering="crispEdges" /><rect x="8" y="8" width="16" height="16" fill="#2c6b1a" shape-rendering="crispEdges" /><rect x="40" y="8" width="16" height="16" fill="#2c6b1a" shape-rendering="crispEdges" /><rect x="8" y="40" width="16" height="16" fill="#2c6b1a" shape-rendering="crispEdges" /><rect x="40" y="40" width="16" height="16" fill="#2c6b1a" shape-rendering="crispEdges" /><rect x="24" y="24" width="16" height="16" fill="#2c6b1a" shape-rendering="crispEdges" /></g></svg>