<svg xmlns="http://www.w3.org/2000/svg" width="64" height="64" viewBox="0 0 64 64"><g transform="rotate(90 32 32)"><defs>
    <filter id="neonGlowSoft" x="-60%" y="-60%" width="220%" height="220%">
      <feGaussianBlur stdDeviation="2.4" result="blur" />
      <feMerge>
        <feMergeNode in="blur" />
        <feMergeNode in="SourceGraphic" />
      </feMerge>
    </filter>
    <filter id="neonGlowStrong" x="-80%" y="-80%" width="260%" height="260%">
      <feGaussianBlur stdDeviation="5" result="blur" />
      <feMerge>
        <feMergeNode in="blur" />
        <feMergeNode in="blur" />
        <feMergeNode in="SourceGraphic" />
      </feMerge>
    </filter>
    <linearGradient id="neonBodyFill" x1="0" y1="0" x2="1" y2="1">
      <stop offset="0" stop-color="#161327" />
      <stop offset="1" stop-color="#241a3d" />
    </linearGradient>
    <radialGradient id="neonOrbGrad" cx="0.5" cy="0.42" r="0.6">
      <stop offset="0" stop-color="#ffffff" />
      <stop offset="0.35" stop-color="#5ef0ff" />
      <stop offset="0.75" stop-color="#ff3ad1" />
      <stop offset="1" stop-color="#2a0a3d" />
    </radialGradient>
  </defs>
    <path d="M12,58 L12,26 C12,10 20,3 32,3 C44,3 52,10 52,26 L52,58 Z" fill="url(#neonBodyFill)" />
    <path d="M12,58 L12,26 C12,10 20,3 32,3 C44,3 52,10 52,26 L52,58"
          fill="none" stroke="#4ff2ff" stroke-width="2.6" filter="url(#neonGlowStrong)" />
    <rect x="17" y="24" width="30" height="7" rx="3.5" fill="#ff3ad1" filter="url(#neonGlowStrong)" />
    <rect x="17" y="24" width="30" height="7" rx="3.5" fill="#ffffff" opacity="0.5" />
  </g></svg>