<svg xmlns="http://www.w3.org/2000/svg" width="64" height="64" viewBox="0 0 64 64"><g transform="rotate(90 32 32)"><defs>
    <filter id="neonGlowSoft" x="-60%" y="-60%" width="220%" height="220%">
      <feGaussianBlur stdDeviation="2.4" result="blur" />
      <feMerge>
        <feMergeNode in="blur" />
        <feMergeNode in="SourceGraphic" />
      </feMerge>
    </filter>
    <filter id="neonGlowStrong" x="-80%" y="-80%" width="260%" height="260%">
      <feGaussianBlur stdDeviation="5" result="blur" />
      <feMerge>
        <feMergeNode in="blur" />
        <feMergeNode in="blur" />
        <feMergeNode in="SourceGraphic" />
      </feMerge>
    </filter>
    <linearGradient id="neonBodyFill" x1="0" y1="0" x2="1" y2="1">
      <stop offset="0" stop-color="#161327" />
      <stop offset="1" stop-color="#241a3d" />
    </linearGradient>
    <radialGradient id="neonOrbGrad" cx="0.5" cy="0.42" r="0.6">
      <stop offset="0" stop-color="#ffffff" />
      <stop offset="0.35" stop-color="#5ef0ff" />
      <stop offset="0.75" stop-color="#ff3ad1" />
      <stop offset="1" stop-color="#2a0a3d" />
    </radialGradient>
  </defs>
    <path d="M32,4 C42,4 48,18 48,30 C48,44 41,54 32,54 C23,54 16,44 16,30 C16,18 22,4 32,4 Z"
          fill="url(#neonBodyFill)" />
    <path d="M32,4 C42,4 48,18 48,30 C48,44 41,54 32,54 C23,54 16,44 16,30 C16,18 22,4 32,4 Z"
          fill="none" stroke="#ff3ad1" stroke-width="2.4" filter="url(#neonGlowSoft)" opacity="0.95" />
    <circle cx="32" cy="59" r="2.2" fill="#4ff2ff" filter="url(#neonGlowSoft)" opacity="0.85" />
    <circle cx="32" cy="52" r="1.4" fill="#4ff2ff" opacity="0.6" />
  </g></svg>